<?xml version="1.0" encoding="UTF-8" standalone="no"?>
<!DOCTYPE svg PUBLIC "-//W3C//DTD SVG 1.1//EN" "http://www.w3.org/Graphics/SVG/1.1/DTD/svg11.dtd">
<!-- Generado por Microsoft Visio, SVG Export 041-ejercicio5.svg Página-1 -->
<svg xmlns="http://www.w3.org/2000/svg" xmlns:xlink="http://www.w3.org/1999/xlink" xmlns:ev="http://www.w3.org/2001/xml-events"
		width="3.21561in" height="7.09356in" viewBox="0 0 231.524 510.736" xml:space="preserve" color-interpolation-filters="sRGB"
		class="st13">
	<style type="text/css">
	<![CDATA[
		.st1 {fill:#ffffff;stroke:#000000;stroke-linecap:round;stroke-linejoin:round;stroke-width:0.5}
		.st2 {fill:#d80073;stroke:#ffffff;stroke-linecap:round;stroke-linejoin:round;stroke-width:2.25}
		.st3 {fill:#ffffff;font-family:Segoe UI;font-size:1.16666em;font-weight:bold}
		.st4 {marker-end:url(#mrkr4-11);stroke:#1998d6;stroke-linecap:round;stroke-linejoin:round;stroke-width:2.25}
		.st5 {fill:#1998d6;fill-opacity:1;stroke:#1998d6;stroke-opacity:1;stroke-width:0.47169811320755}
		.st6 {fill:#f09609;stroke:#ffffff;stroke-linecap:round;stroke-linejoin:round;stroke-width:2.25}
		.st7 {font-size:1em}
		.st8 {fill:#1ba1e2;stroke:#ffffff;stroke-linecap:round;stroke-linejoin:round;stroke-width:2.25}
		.st9 {fill:#ffffff;stroke:none;stroke-linecap:butt}
		.st10 {fill:#1076a7;font-family:Segoe UI;font-size:1.16666em;font-weight:bold}
		.st11 {fill:#339933;stroke:#ffffff;stroke-linecap:round;stroke-linejoin:round;stroke-width:2.25}
		.st12 {fill:#ffffff;stroke:none;stroke-linecap:butt;stroke-width:7.2}
		.st13 {fill:none;fill-rule:evenodd;font-size:12px;overflow:visible;stroke-linecap:square;stroke-miterlimit:3}
	]]>
	</style>

	<defs id="Markers">
		<g id="lend4">
			<path d="M 2 1 L 0 0 L 2 -1 L 2 1 " style="stroke:none"/>
		</g>
		<marker id="mrkr4-11" class="st5" refX="-4.24" orient="auto" markerUnits="strokeWidth" overflow="visible">
			<use xlink:href="#lend4" transform="scale(-2.12,-2.12) "/>
		</marker>
	</defs>
	<g>
		<title>Página-1</title>
		<g id="shape1014-1" transform="translate(0.25,-0.25)">
			<title>Hoja.1014</title>
			<rect x="0" y="0.500014" width="231.024" height="510.236" class="st1"/>
		</g>
		<g id="shape1000-3" transform="translate(73.9508,-453.793)">
			<title>Inicio o finalización.1000</title>
			<desc>Inicio</desc>
			<path d="M14.17 510.74 L56.69 510.74 A14.1732 14.1732 -180 0 0 56.69 482.39 L14.17 482.39 A14.1732 14.1732 -180 1 0 14.17
						 510.74 Z" class="st2"/>
			<text x="17.36" y="500.76" class="st3">Inicio</text>		</g>
		<g id="shape1002-6" transform="translate(102.297,-453.793)">
			<title>Conector dinámico.1002</title>
			<path d="M7.09 510.74 L7.09 533.79" class="st4"/>
		</g>
		<g id="shape1011-12" transform="translate(47.0216,-364.502)">
			<title>Datos.1011</title>
			<desc>Ingrese número &#60; num &#62;</desc>
			<path d="M-14.17 510.74 L110.55 510.74 L138.9 454.04 L14.17 454.04 L-14.17 510.74 Z" class="st6"/>
			<text x="38.14" y="469.79" class="st3">Ingrese <tspan x="36.63" dy="1.2em" class="st7">número </tspan><tspan x="33.72"
						dy="1.2em" class="st7">&#60; num &#62;</tspan></text>		</g>
		<g id="shape1004-17" transform="translate(102.297,-364.502)">
			<title>Conector dinámico.1004</title>
			<path d="M7.09 510.74 L7.09 533.79" class="st4"/>
		</g>
		<g id="shape1003-22" transform="translate(60.4862,-289.384)">
			<title>Proceso.1003</title>
			<desc>Cuenta atrás &#60; num -1 &#62;</desc>
			<rect x="0" y="468.217" width="97.7953" height="42.5197" class="st8"/>
			<text x="7.73" y="485.28" class="st3">Cuenta atrás<tspan x="11.47" dy="1.2em" class="st7">&#60; num </tspan>-1 &#62;</text>		</g>
		<g id="shape1006-26" transform="translate(102.297,-289.384)">
			<title>Conector dinámico.1006</title>
			<path d="M7.09 510.74 L7.09 533.79" class="st4"/>
		</g>
		<g id="shape1005-31" transform="translate(67.2185,-196.067)">
			<title>Decisión.1005</title>
			<desc>num &#62; 0</desc>
			<path d="M0 480.38 L42.17 450.02 L84.33 480.38 L42.17 510.74 L0 480.38 Z" class="st2"/>
			<text x="16.38" y="484.58" class="st3">num &#62; 0</text>		</g>
		<g id="shape1008-34" transform="translate(102.297,-196.067)">
			<title>Conector dinámico.1008</title>
			<desc>No</desc>
			<path d="M7.09 510.74 L7.09 555.28" class="st4"/>
			<rect x="-2.72283" y="529.379" width="19.6191" height="16.8" class="st9"/>
			<text x="-2.72" y="541.98" class="st10">No</text>		</g>
		<g id="shape1012-41" transform="translate(51.2736,-93.7933)">
			<title>Documento.1012</title>
			<desc>Cuenta atrás finalizada</desc>
			<path d="M0 504.71 L0 462.55 L116.22 462.55 L116.22 504.71 A73.0859 73.0859 -180 0 0 58.11 504.71 A73.0859 73.0859 0
						 0 1 0 504.71 Z" class="st11"/>
			<text x="16.94" y="476.42" class="st3">Cuenta atrás <tspan x="26.24" dy="1.2em" class="st7">finalizada</tspan></text>		</g>
		<g id="shape1010-45" transform="translate(102.297,-99.8169)">
			<title>Conector dinámico.1010</title>
			<path d="M7.09 510.74 L7.09 529.9" class="st4"/>
		</g>
		<g id="shape1009-50" transform="translate(73.9508,-42.7697)">
			<title>Inicio o finalización.1009</title>
			<desc>Fin</desc>
			<path d="M14.17 510.74 L56.69 510.74 A14.1732 14.1732 -180 0 0 56.69 482.39 L14.17 482.39 A14.1732 14.1732 -180 1 0 14.17
						 510.74 Z" class="st2"/>
			<text x="25.57" y="500.76" class="st3">Fin</text>		</g>
		<g id="shape1013-53" transform="translate(147.829,-226.426)">
			<title>Conector dinámico.1013</title>
			<desc>Sí</desc>
			<path d="M3.72 510.74 L42.34 510.74 L42.34 426.52 L19.99 426.52" class="st4"/>
			<rect x="36.4296" y="463.594" width="11.826" height="16.8" class="st12"/>
			<text x="36.43" y="476.19" class="st10">Sí</text>		</g>
	</g>
</svg>
