<?xml version="1.0" encoding="UTF-8" standalone="no"?>
<!DOCTYPE svg PUBLIC "-//W3C//DTD SVG 1.1//EN" "http://www.w3.org/Graphics/SVG/1.1/DTD/svg11.dtd">
<!-- Generado por Microsoft Visio, SVG Export 041-ejercicio2.svg Página-1 -->
<svg xmlns="http://www.w3.org/2000/svg" xmlns:xlink="http://www.w3.org/1999/xlink" xmlns:ev="http://www.w3.org/2001/xml-events"
		width="3.94395in" height="4.57387in" viewBox="0 0 283.965 329.319" xml:space="preserve" color-interpolation-filters="sRGB"
		class="st11">
	<style type="text/css">
	<![CDATA[
		.st1 {fill:#ffffff;stroke:#000000;stroke-linecap:round;stroke-linejoin:round;stroke-width:0.5}
		.st2 {fill:#d80073;stroke:#ffffff;stroke-linecap:round;stroke-linejoin:round;stroke-width:2.25}
		.st3 {fill:#ffffff;font-family:Segoe UI;font-size:1.00001em;font-weight:bold}
		.st4 {marker-end:url(#mrkr4-11);stroke:#1998d6;stroke-linecap:round;stroke-linejoin:round;stroke-width:2.25}
		.st5 {fill:#1998d6;fill-opacity:1;stroke:#1998d6;stroke-opacity:1;stroke-width:0.47169811320755}
		.st6 {fill:#f09609;stroke:#ffffff;stroke-linecap:round;stroke-linejoin:round;stroke-width:2.25}
		.st7 {font-size:1em}
		.st8 {fill:#ffffff;stroke:none;stroke-linecap:butt;stroke-width:7.2}
		.st9 {fill:#1076a7;font-family:Segoe UI;font-size:1.00001em;font-weight:bold}
		.st10 {fill:#1ba1e2;stroke:#ffffff;stroke-linecap:round;stroke-linejoin:round;stroke-width:2.25}
		.st11 {fill:none;fill-rule:evenodd;font-size:12px;overflow:visible;stroke-linecap:square;stroke-miterlimit:3}
	]]>
	</style>

	<defs id="Markers">
		<g id="lend4">
			<path d="M 2 1 L 0 0 L 2 -1 L 2 1 " style="stroke:none"/>
		</g>
		<marker id="mrkr4-11" class="st5" refX="-4.24" orient="auto" markerUnits="strokeWidth" overflow="visible">
			<use xlink:href="#lend4" transform="scale(-2.12,-2.12) "/>
		</marker>
	</defs>
	<g>
		<title>Página-1</title>
		<g id="shape1000-1" transform="translate(0.25,-0.25)">
			<title>Hoja.1000</title>
			<rect x="0" y="0.500005" width="283.465" height="328.819" class="st1"/>
		</g>
		<g id="shape1-3" transform="translate(62.6122,-275.211)">
			<title>Inicio o finalización</title>
			<desc>Inicio</desc>
			<path d="M14.17 329.32 L56.69 329.32 A14.1732 14.1732 -180 0 0 56.69 300.97 L14.17 300.97 A14.1732 14.1732 -180 1 0 14.17
						 329.32 Z" class="st2"/>
			<text x="19.94" y="318.75" class="st3">Inicio</text>		</g>
		<g id="shape3-6" transform="translate(90.9587,-275.211)">
			<title>Conector dinámico</title>
			<path d="M7.09 329.32 L7.09 360.17" class="st4"/>
		</g>
		<g id="shape4-12" transform="translate(52.6909,-189.463)">
			<title>Datos</title>
			<desc>Ingresar número &#60; num &#62;</desc>
			<path d="M-11.34 329.32 L79.37 329.32 L102.05 283.96 L11.34 283.96 L-11.34 329.32 Z" class="st6"/>
			<text x="22.22" y="295.84" class="st3">Ingresar <tspan x="23.3" dy="1.2em" class="st7">número </tspan><tspan x="20.8"
						dy="1.2em" class="st7">&#60; num &#62;</tspan></text>		</g>
		<g id="shape6-17" transform="translate(90.9587,-189.463)">
			<title>Conector dinámico.6</title>
			<path d="M7.09 329.32 L7.09 355.57" class="st4"/>
		</g>
		<g id="shape5-22" transform="translate(57.6516,-98.3996)">
			<title>Decisión</title>
			<desc>num &#62;= 5</desc>
			<path d="M0 301.68 L40.39 274.04 L80.79 301.68 L40.39 329.32 L0 301.68 Z" class="st2"/>
			<text x="12.39" y="305.28" class="st3">num &#62;= 5</text>		</g>
		<g id="shape8-25" transform="translate(138.439,-119.128)">
			<title>Conector dinámico.8</title>
			<desc>No</desc>
			<path d="M0 322.41 L28.02 322.15" class="st4"/>
			<rect x="10.3712" y="315.032" width="16.8168" height="14.4001" class="st8"/>
			<text x="10.37" y="325.83" class="st9">No</text>		</g>
		<g id="shape7-32" transform="translate(175.998,-105.132)">
			<title>Proceso</title>
			<desc>Es menor que 5</desc>
			<rect x="0" y="286.799" width="70.8661" height="42.5197" class="st10"/>
			<text x="9.52" y="304.46" class="st3">Es menor <tspan x="19.74" dy="1.2em" class="st7">que 5</tspan></text>		</g>
		<g id="shape10-36" transform="translate(90.9587,-98.3996)">
			<title>Conector dinámico.10</title>
			<desc>Sí</desc>
			<path d="M7.09 329.32 L7.09 355.57" class="st4"/>
			<rect x="2.01816" y="340.013" width="10.1368" height="14.4001" class="st8"/>
			<text x="2.02" y="350.81" class="st9">Sí</text>		</g>
		<g id="shape9-43" transform="translate(62.6122,-20.0925)">
			<title>Proceso.9</title>
			<desc>Es mayor o igual a 5</desc>
			<rect x="0" y="286.799" width="70.8661" height="42.5197" class="st10"/>
			<text x="4.61" y="304.46" class="st3">Es mayor o <tspan x="11.46" dy="1.2em" class="st7">igual a 5</tspan></text>		</g>
		<g id="shape12-47" transform="translate(133.478,-48.439)">
			<title>Conector dinámico.12</title>
			<path d="M0 336.41 L32.98 336.41" class="st4"/>
		</g>
		<g id="shape11-52" transform="translate(175.998,-27.1791)">
			<title>Inicio o finalización.11</title>
			<desc>Fin</desc>
			<path d="M14.17 329.32 L56.69 329.32 A14.1732 14.1732 -180 0 0 56.69 300.97 L14.17 300.97 A14.1732 14.1732 -180 1 0 14.17
						 329.32 Z" class="st2"/>
			<text x="26.98" y="318.75" class="st3">Fin</text>		</g>
		<g id="shape13-55" transform="translate(204.344,-105.132)">
			<title>Conector dinámico.13</title>
			<path d="M7.09 329.32 L7.09 369.39" class="st4"/>
		</g>
	</g>
</svg>
